# xmcd
#
# Track frame offsets: 
#        150
#        18192
#        31992
#        51905
#        70095
#        87889
#        103081
#        117209
#        133722
#        148527
#        166619
#        185207
#
# Disc length: 2648 seconds
#
# Revision: 2
# Processed by: cddbd v1.5.2PL0 Copyright (c) Steve Scherf et al.
# Submitted via: ExactAudioCopyFreeDBPlugin 1.0
#
DISCID=9e0a560c
DTITLE=Lonestar - Coming Home
DYEAR=2005
DGENRE=Country
TTITLE0=You're Like Comin' Home
TTITLE1=Doghouse
TTITLE2=I Am A Man
TTITLE3=I'll Die Tryin'
TTITLE4=Wild
TTITLE5=Noise
TTITLE6=Little Town
TTITLE7=I Never Needed You
TTITLE8=What's Wrong With That
TTITLE9=Two Bottles Of Beer
TTITLE10=I Just Want To Love You
TTITLE11=When I Go Home Again
EXTD=YEAR: 2005
EXTT0=
EXTT1=
EXTT2=
EXTT3=
EXTT4=
EXTT5=
EXTT6=
EXTT7=
EXTT8=
EXTT9=
EXTT10=
EXTT11=
PLAYORDER=
